<?xml version="1.0" encoding="UTF-8"?> <svg xmlns="http://www.w3.org/2000/svg" xmlns:xlink="http://www.w3.org/1999/xlink" width="211px" height="22px" viewBox="0 0 211 22" version="1.1"><title>icon/logo/horizontal/large</title><desc>Created with Sketch.</desc><g id="📷-Icons" stroke="none" stroke-width="1" fill="none" fill-rule="evenodd"><g id="Logo" transform="translate(-287.000000, -254.000000)" fill="#FFFFFF" fill-rule="nonzero"><g id="icon/logo/horizontal/large" transform="translate(287.000000, 254.000000)"><path d="M45.0204142,13.8005405 L47.0733872,13.8005405 L47.0733872,20.6152703 L29.9367655,20.6152703 L29.9367655,18.1345946 L32.3604142,18.1345946 L32.3604142,3.13648649 L28.427973,3.13648649 L23.4381081,20.6152703 L19.4747297,20.6152703 L15.4258108,6.13040541 L11.2628378,20.6152703 L7.29945946,20.6152703 L2.28108108,3.13648649 L2.55795385e-13,3.13648649 L2.55795385e-13,0.655810811 L9.29540541,0.655810811 L9.29540541,3.13648649 L6.61513514,3.13648649 L9.95121622,15.1691892 L13.9431081,0.655810811 L18.0490541,0.655810811 L22.1264865,15.1977027 L25.4055405,3.13648649 L22.6112162,3.13648649 L22.6112162,0.655810811 L46.7885372,0.655810811 L46.7885372,7.12837838 L44.7355642,7.12837838 L44.5359696,6.35851351 C43.9086723,3.96337838 43.2528615,3.13648649 41.3424561,3.13648649 L36.6092128,3.13648649 L36.6092128,9.15283784 L42.3404291,9.15283784 C42.5578263,9.57563239 42.6656683,10.0462155 42.6540777,10.5214865 C42.668937,11.0153278 42.5611753,11.505154 42.3404291,11.9471622 L36.6092128,11.9471622 L36.6092128,18.1345946 L41.5420507,18.1345946 C43.3954291,18.1345946 44.2223209,17.3362162 44.7925912,14.7985135 L45.0204142,13.8005405 Z M63.0393865,14.7985135 C62.4691162,17.3362162 61.6707378,18.1345946 59.7888459,18.1345946 L55.8254676,18.1345946 L55.8254676,3.13648649 L58.5342514,3.13648649 L58.5342514,0.655810811 L49.1533054,0.655810811 L49.1533054,3.13648649 L51.5769541,3.13648649 L51.5769541,18.1345946 L49.1533054,18.1345946 L49.1533054,20.6152703 L65.3204676,20.6152703 L65.3204676,13.8005405 L63.2674946,13.8005405 L63.0393865,14.7985135 Z M81.0013318,14.7985135 C80.4310615,17.3362162 79.6326831,18.1345946 77.7507912,18.1345946 L73.7874128,18.1345946 L73.7874128,3.13648649 L76.4961966,3.13648649 L76.4961966,0.655810811 L67.1152507,0.655810811 L67.1152507,3.13648649 L69.5388993,3.13648649 L69.5388993,18.1345946 L67.1152507,18.1345946 L67.1152507,20.6152703 L83.2824128,20.6152703 L83.2824128,13.8005405 L81.2294399,13.8005405 L81.0013318,14.7985135 Z M96.0261,8.92472973 L92.4048838,8.09783784 C90.2948838,7.61310811 89.4109649,6.78621622 89.4109649,5.38905405 C89.4109649,3.70675676 90.7511,2.65175676 93.3743432,2.65175676 C95.9975865,2.65175676 97.5373162,3.5927027 98.1361,5.81675676 L98.3927216,6.78621622 L100.445695,6.78621622 L100.445695,1.85337838 C98.2049311,0.700836845 95.7231831,0.0950439049 93.2034047,0.0855405405 C88.3275939,0.0855405405 85.1911074,2.42364865 85.1911074,6.18743243 C85.1911074,9.09581081 87.0159723,11.2343243 90.5231345,12.0041892 L94.1443507,12.8025676 C96.4539453,13.3158108 97.3093507,14.2282432 97.3093507,15.7394595 C97.3093507,17.5928378 95.9121885,18.6193243 93.1178642,18.6193243 C89.9528642,18.6193243 88.3275939,17.3647297 87.6147561,14.9695946 L87.2440804,13.7435135 L85.1911074,13.7435135 L85.1911074,19.3321622 C87.8001655,20.6314115 90.6891011,21.2679566 93.6025939,21.1855405 C98.3928642,21.1855405 101.529351,18.7904054 101.529351,15.0551351 C101.529351,11.9186486 99.6186601,9.75162162 96.0261,8.92472973 Z M123.510418,3.13648649 C125.420824,3.13648649 126.076634,3.96337838 126.703932,6.35851351 L126.903526,7.12837838 L128.956499,7.12837838 L128.956499,0.655810811 L111.762851,0.655810811 L111.762851,3.13648649 L114.186499,3.13648649 L114.186499,18.1345946 L111.762851,18.1345946 L111.762851,20.6152703 L121.286364,20.6152703 L121.286364,18.1345946 L118.435013,18.1345946 L118.435013,12.3178378 L124.308797,12.3178378 C124.529503,11.8758158 124.637263,11.3859996 124.622445,10.8921622 C124.634097,10.4168851 124.526252,9.94628703 124.308797,9.52351351 L118.435013,9.52351351 L118.435013,3.13648649 L123.510418,3.13648649 Z M166.961876,20.7008108 C166.224386,20.7963609 165.481476,20.8439833 164.737822,20.8433841 C161.972011,20.8433841 160.631876,19.7028378 160.318228,17.0510811 L160.204174,16.0531081 C159.862011,13.1732432 158.921066,12.0612162 155.784579,12.0612162 L154.216336,12.0612162 L154.216336,18.1345946 L156.92512,18.1345946 L156.92512,20.6152703 L138.992116,20.6152703 L138.992116,18.1345946 L141.330224,18.1345946 L140.018602,14.5704054 L132.605089,14.5704054 L131.293467,18.1345946 L133.688602,18.1345946 L133.688602,20.6152703 L126.132521,20.6152703 L126.132521,18.1345946 L128.128467,18.1345946 L135.114135,0.655810811 L138.906432,0.655810811 L146.034811,18.1345946 L149.967822,18.1345946 L149.967822,3.13648649 L147.544174,3.13648649 L147.544174,0.655810811 L159.006606,0.655810811 C163.084039,0.655810811 165.735795,2.68027027 165.735795,5.93081081 C165.716016,7.29295901 165.154432,8.59111527 164.175227,9.53821474 C163.196023,10.4853142 161.879873,11.0033267 160.517822,10.9777027 L160.517822,11.0632432 C161.557945,11.0496957 162.559432,11.4569048 163.294972,12.192445 C164.030512,12.9279853 164.437721,13.9294718 164.424174,14.9695946 L164.538228,16.0245946 C164.709309,17.6783784 165.051471,18.4197297 166.363093,18.4197297 C166.563944,18.4177457 166.764261,18.3986679 166.961876,18.3627027 C167.3039,19.1045482 167.3039,19.9589653 166.961876,20.7008108 Z M139.105884,12.1467568 L136.31156,4.59067568 L133.517236,12.1467568 L139.105884,12.1467568 Z M161.430255,6.33 C161.430255,4.24851351 160.147147,3.13648649 157.58093,3.13648649 L154.216336,3.13648649 L154.216336,9.55202703 L157.58093,9.55202703 C160.118776,9.55202703 161.430255,8.38297297 161.430255,6.33 Z M178.771889,12.9166216 L182.164997,12.9166216 L182.164997,17.9635135 C181.097835,18.4023519 179.954256,18.6252529 178.800402,18.6193243 C174.694456,18.6193243 172.555943,15.6824324 172.555943,10.607027 C172.555943,5.53162162 174.694456,2.59472973 178.572294,2.59472973 C180.843987,2.4779034 182.902702,3.92488584 183.562159,6.10189189 L183.875807,6.90027027 L185.92878,6.90027027 L185.92878,1.79635135 C183.584075,0.62128631 180.995342,0.015620668 178.372699,0.02831191 C172.099726,0.02831191 167.879726,4.22 167.879726,10.6355405 C167.879726,17.0795946 171.985672,21.1855405 178.372699,21.1855405 C181.161687,21.1116114 183.895138,20.3891993 186.356483,19.0755405 L186.356483,10.1793243 L178.771889,10.1793243 C178.551579,10.5907838 178.443409,11.0529672 178.45824,11.5194595 C178.44016,12.0044717 178.548231,12.4858769 178.771889,12.9166216 Z M210.199055,10.607027 C210.199055,16.4651263 205.450128,21.2140541 199.592028,21.2140541 C193.733929,21.2140541 188.985001,16.4651263 188.985001,10.607027 C188.985001,4.74892776 193.733929,-2.66453526e-15 199.592028,-2.66453526e-15 C205.450128,-2.66453526e-15 210.199055,4.74892776 210.199055,10.607027 Z M205.522839,10.607027 C205.522839,5.56013514 203.441353,2.62324324 199.592028,2.62324324 C195.742704,2.62324324 193.661218,5.56013514 193.661218,10.607027 C193.661218,15.6824324 195.714191,18.5908108 199.592028,18.5908108 C203.469866,18.5908108 205.522839,15.6824324 205.522839,10.607027 Z" id="Fill"></path></g></g></g></svg> 